<?xml version="1.0" standalone="no"?>
 <!DOCTYPE svg PUBLIC "-//W3C//DTD SVG 1.1//EN" 
 "http://www.w3.org/Graphics/SVG/1.1/DTD/svg11.dtd"> 
<svg xmlns="http://www.w3.org/2000/svg" version="1.1" 
    width="8.83412cm" height="4.61772cm" viewBox="0 0 34780 18180 ">
<title>SVG Picture created as anavi-light-brd.svg date 2017/07/20 02:57:31 </title>
  <desc>Picture generated by PCBNEW </desc>
<g style="fill:#000000; fill-opacity:1;stroke:#000000; stroke-opacity:1;
stroke-linecap:round; stroke-linejoin:round; "
 transform="translate(0 0) scale(1 1)">
</g>
<g style="fill:#000000; fill-opacity:0.0; 
stroke:#000000; stroke-width:-0.000393701; stroke-opacity:1; 
stroke-linecap:round; stroke-linejoin:round;">
</g>
<g style="fill:#840084; fill-opacity:0.0; 
stroke:#840084; stroke-width:-0.000393701; stroke-opacity:1; 
stroke-linecap:round; stroke-linejoin:round;">
</g>
<g style="fill:#840084; fill-opacity:0.0; 
stroke:#840084; stroke-width:78.7402; stroke-opacity:1; 
stroke-linecap:round; stroke-linejoin:round;">
<path d="M5977 4787
L5977 4393
" />
</g>
<g style="fill:#000000; fill-opacity:0.0; 
stroke:#000000; stroke-width:78.7402; stroke-opacity:1; 
stroke-linecap:round; stroke-linejoin:round;">
</g>
<g style="fill:#840000; fill-opacity:0.0; 
stroke:#840000; stroke-width:78.7402; stroke-opacity:1; 
stroke-linecap:round; stroke-linejoin:round;">
</g>
<g style="fill:#840000; fill-opacity:0.0; 
stroke:#840000; stroke-width:629.921; stroke-opacity:1; 
stroke-linecap:round; stroke-linejoin:round;">
<path d="M22759 7222
L22759 7222
" />
<path d="M22759 8222
L22759 8222
" />
<path d="M22759 9222
L22759 9222
" />
<path d="M22759 10222
L22759 10222
" />
<path d="M25759 10222
L25759 10222
" />
<path d="M25759 9222
L25759 9222
" />
<path d="M25759 8222
L25759 8222
" />
<path d="M25759 7222
L25759 7222
" />
</g>
<g style="fill:#840000; fill-opacity:0.0; 
stroke:#840000; stroke-width:0; stroke-opacity:1; 
stroke-linecap:round; stroke-linejoin:round;">
</g>
<g style="fill:#840000; fill-opacity:1.0; 
stroke:#840000; stroke-width:0; stroke-opacity:1; 
stroke-linecap:round; stroke-linejoin:round;">
<polyline style="fill-rule:evenodd;"
points="8226,5654
7546,5654
7546,4974
8226,4974
8226,5654
" /> 
</g>
<g style="fill:#840000; fill-opacity:1.0; 
stroke:#840000; stroke-width:680; stroke-opacity:1; 
stroke-linecap:round; stroke-linejoin:round;">
</g>
<g style="fill:#840000; fill-opacity:0.0; 
stroke:#840000; stroke-width:680; stroke-opacity:1; 
stroke-linecap:round; stroke-linejoin:round;">
<path d="M7886 4314
L7886 4314
" />
<path d="M8886 5314
L8886 5314
" />
<path d="M8886 4314
L8886 4314
" />
<path d="M9886 5314
L9886 5314
" />
<path d="M9886 4314
L9886 4314
" />
<path d="M10886 5314
L10886 5314
" />
<path d="M10886 4314
L10886 4314
" />
<path d="M11886 5314
L11886 5314
" />
<path d="M11886 4314
L11886 4314
" />
<path d="M12886 5314
L12886 5314
" />
<path d="M12886 4314
L12886 4314
" />
<path d="M13886 5314
L13886 5314
" />
<path d="M13886 4314
L13886 4314
" />
<path d="M14886 5314
L14886 5314
" />
<path d="M14886 4314
L14886 4314
" />
<path d="M15886 5314
L15886 5314
" />
<path d="M15886 4314
L15886 4314
" />
<path d="M16886 5314
L16886 5314
" />
<path d="M16886 4314
L16886 4314
" />
<path d="M17886 5314
L17886 5314
" />
<path d="M17886 4314
L17886 4314
" />
<path d="M18886 5314
L18886 5314
" />
<path d="M18886 4314
L18886 4314
" />
<path d="M19886 5314
L19886 5314
" />
<path d="M19886 4314
L19886 4314
" />
<path d="M20886 5314
L20886 5314
" />
<path d="M20886 4314
L20886 4314
" />
<path d="M21886 5314
L21886 5314
" />
<path d="M21886 4314
L21886 4314
" />
<path d="M22886 5314
L22886 5314
" />
<path d="M22886 4314
L22886 4314
" />
<path d="M23886 5314
L23886 5314
" />
<path d="M23886 4314
L23886 4314
" />
<path d="M24886 5314
L24886 5314
" />
<path d="M24886 4314
L24886 4314
" />
<path d="M25886 5314
L25886 5314
" />
<path d="M25886 4314
L25886 4314
" />
<path d="M26886 5314
L26886 5314
" />
<path d="M26886 4314
L26886 4314
" />
</g>
<g style="fill:#840000; fill-opacity:0.0; 
stroke:#840000; stroke-width:0; stroke-opacity:1; 
stroke-linecap:round; stroke-linejoin:round;">
</g>
<g style="fill:#840000; fill-opacity:1.0; 
stroke:#840000; stroke-width:0; stroke-opacity:1; 
stroke-linecap:round; stroke-linejoin:round;">
<polyline style="fill-rule:evenodd;"
points="8287,7727
7607,7727
7607,6927
8287,6927
8287,7727
" /> 
</g>
<g style="fill:#840000; fill-opacity:1.0; 
stroke:#840000; stroke-width:680; stroke-opacity:1; 
stroke-linecap:round; stroke-linejoin:round;">
</g>
<g style="fill:#840000; fill-opacity:0.0; 
stroke:#840000; stroke-width:680; stroke-opacity:1; 
stroke-linecap:round; stroke-linejoin:round;">
<path d="M8947 7387
L8947 7267
" />
<path d="M9947 7387
L9947 7267
" />
<path d="M10947 7387
L10947 7267
" />
</g>
<g style="fill:#840000; fill-opacity:0.0; 
stroke:#840000; stroke-width:0; stroke-opacity:1; 
stroke-linecap:round; stroke-linejoin:round;">
</g>
<g style="fill:#840000; fill-opacity:1.0; 
stroke:#840000; stroke-width:0; stroke-opacity:1; 
stroke-linecap:round; stroke-linejoin:round;">
<polyline style="fill-rule:evenodd;"
points="28400,11344
28400,10544
29200,10544
29200,11344
28400,11344
" /> 
</g>
<g style="fill:#840000; fill-opacity:1.0; 
stroke:#840000; stroke-width:800; stroke-opacity:1; 
stroke-linecap:round; stroke-linejoin:round;">
</g>
<g style="fill:#840000; fill-opacity:0.0; 
stroke:#840000; stroke-width:800; stroke-opacity:1; 
stroke-linecap:round; stroke-linejoin:round;">
<path d="M28800 11944
L28800 11944
" />
</g>
<g style="fill:#840000; fill-opacity:0.0; 
stroke:#840000; stroke-width:0; stroke-opacity:1; 
stroke-linecap:round; stroke-linejoin:round;">
</g>
<g style="fill:#840000; fill-opacity:1.0; 
stroke:#840000; stroke-width:0; stroke-opacity:1; 
stroke-linecap:round; stroke-linejoin:round;">
<polyline style="fill-rule:evenodd;"
points="15235,10919
15915,10919
15915,11719
15235,11719
15235,10919
" /> 
</g>
<g style="fill:#840000; fill-opacity:1.0; 
stroke:#840000; stroke-width:680; stroke-opacity:1; 
stroke-linecap:round; stroke-linejoin:round;">
</g>
<g style="fill:#840000; fill-opacity:0.0; 
stroke:#840000; stroke-width:680; stroke-opacity:1; 
stroke-linecap:round; stroke-linejoin:round;">
<path d="M14575 11259
L14575 11379
" />
<path d="M13575 11259
L13575 11379
" />
<path d="M12575 11259
L12575 11379
" />
</g>
<g style="fill:#840000; fill-opacity:0.0; 
stroke:#840000; stroke-width:0; stroke-opacity:1; 
stroke-linecap:round; stroke-linejoin:round;">
</g>
<g style="fill:#840000; fill-opacity:1.0; 
stroke:#840000; stroke-width:0; stroke-opacity:1; 
stroke-linecap:round; stroke-linejoin:round;">
<polyline style="fill-rule:evenodd;"
points="15235,8919
15915,8919
15915,9719
15235,9719
15235,8919
" /> 
</g>
<g style="fill:#840000; fill-opacity:1.0; 
stroke:#840000; stroke-width:680; stroke-opacity:1; 
stroke-linecap:round; stroke-linejoin:round;">
</g>
<g style="fill:#840000; fill-opacity:0.0; 
stroke:#840000; stroke-width:680; stroke-opacity:1; 
stroke-linecap:round; stroke-linejoin:round;">
<path d="M14575 9259
L14575 9379
" />
<path d="M13575 9259
L13575 9379
" />
<path d="M12575 9259
L12575 9379
" />
</g>
<g style="fill:#840000; fill-opacity:0.0; 
stroke:#840000; stroke-width:0; stroke-opacity:1; 
stroke-linecap:round; stroke-linejoin:round;">
</g>
<g style="fill:#840000; fill-opacity:1.0; 
stroke:#840000; stroke-width:0; stroke-opacity:1; 
stroke-linecap:round; stroke-linejoin:round;">
<polyline style="fill-rule:evenodd;"
points="15235,6919
15915,6919
15915,7719
15235,7719
15235,6919
" /> 
</g>
<g style="fill:#840000; fill-opacity:1.0; 
stroke:#840000; stroke-width:680; stroke-opacity:1; 
stroke-linecap:round; stroke-linejoin:round;">
</g>
<g style="fill:#840000; fill-opacity:0.0; 
stroke:#840000; stroke-width:680; stroke-opacity:1; 
stroke-linecap:round; stroke-linejoin:round;">
<path d="M14575 7259
L14575 7379
" />
<path d="M13575 7259
L13575 7379
" />
<path d="M12575 7259
L12575 7379
" />
</g>
<g style="fill:#840000; fill-opacity:1.0; 
stroke:#840000; stroke-width:0; stroke-opacity:1; 
stroke-linecap:round; stroke-linejoin:round;">
<circle cx="5977.39" cy="4803.15" r="925.197" /> 
</g>
<g style="fill:#840000; fill-opacity:1.0; 
stroke:#840000; stroke-width:393.701; stroke-opacity:1; 
stroke-linecap:round; stroke-linejoin:round;">
</g>
<g style="fill:#840000; fill-opacity:1.0; 
stroke:#840000; stroke-width:0; stroke-opacity:1; 
stroke-linecap:round; stroke-linejoin:round;">
<circle cx="28812" cy="4803.15" r="925.197" /> 
</g>
<g style="fill:#840000; fill-opacity:1.0; 
stroke:#840000; stroke-width:393.701; stroke-opacity:1; 
stroke-linecap:round; stroke-linejoin:round;">
</g>
<g style="fill:#840000; fill-opacity:1.0; 
stroke:#840000; stroke-width:0; stroke-opacity:1; 
stroke-linecap:round; stroke-linejoin:round;">
<circle cx="28812" cy="13858.3" r="925.197" /> 
</g>
<g style="fill:#840000; fill-opacity:1.0; 
stroke:#840000; stroke-width:393.701; stroke-opacity:1; 
stroke-linecap:round; stroke-linejoin:round;">
</g>
<g style="fill:#840000; fill-opacity:1.0; 
stroke:#840000; stroke-width:0; stroke-opacity:1; 
stroke-linecap:round; stroke-linejoin:round;">
<circle cx="5977.39" cy="13858.3" r="925.197" /> 
</g>
<g style="fill:#840000; fill-opacity:1.0; 
stroke:#840000; stroke-width:393.701; stroke-opacity:1; 
stroke-linecap:round; stroke-linejoin:round;">
</g>
<g style="fill:#840000; fill-opacity:1.0; 
stroke:#840000; stroke-width:0; stroke-opacity:1; 
stroke-linecap:round; stroke-linejoin:round;">
<polyline style="fill-rule:evenodd;"
points="5534,9662
5534,8982
6334,8982
6334,9662
5534,9662
" /> 
</g>
<g style="fill:#840000; fill-opacity:1.0; 
stroke:#840000; stroke-width:680; stroke-opacity:1; 
stroke-linecap:round; stroke-linejoin:round;">
</g>
<g style="fill:#840000; fill-opacity:0.0; 
stroke:#840000; stroke-width:680; stroke-opacity:1; 
stroke-linecap:round; stroke-linejoin:round;">
<path d="M5874 10322
L5994 10322
" />
<path d="M5874 11322
L5994 11322
" />
</g>
<g style="fill:#840000; fill-opacity:0.0; 
stroke:#840000; stroke-width:787; stroke-opacity:1; 
stroke-linecap:round; stroke-linejoin:round;">
<path d="M11146 12350
L11146 13138
" />
<path d="M8665 14024
L9453 14024
" />
<path d="M8567 11661
L9552 11661
" />
</g>
<g style="fill:#840000; fill-opacity:1.0; 
stroke:#840000; stroke-width:0; stroke-opacity:1; 
stroke-linecap:round; stroke-linejoin:round;">
<circle cx="26515.4" cy="13622.6" r="492.126" /> 
</g>
<g style="fill:#840000; fill-opacity:1.0; 
stroke:#840000; stroke-width:393.701; stroke-opacity:1; 
stroke-linecap:round; stroke-linejoin:round;">
</g>
<g style="fill:#840000; fill-opacity:1.0; 
stroke:#840000; stroke-width:0; stroke-opacity:1; 
stroke-linecap:round; stroke-linejoin:round;">
<circle cx="24546.9" cy="13622.6" r="492.126" /> 
</g>
<g style="fill:#840000; fill-opacity:1.0; 
stroke:#840000; stroke-width:393.701; stroke-opacity:1; 
stroke-linecap:round; stroke-linejoin:round;">
</g>
<g style="fill:#840000; fill-opacity:1.0; 
stroke:#840000; stroke-width:0; stroke-opacity:1; 
stroke-linecap:round; stroke-linejoin:round;">
<polyline style="fill-rule:evenodd;"
points="20117,14114
20117,13130
21101,13130
21101,14114
20117,14114
" /> 
<circle cx="22578.4" cy="13622.6" r="492.126" /> 
</g>
<g style="fill:#840000; fill-opacity:1.0; 
stroke:#840000; stroke-width:393.701; stroke-opacity:1; 
stroke-linecap:round; stroke-linejoin:round;">
</g>
<g style="fill:#000000; fill-opacity:1.0; 
stroke:#000000; stroke-width:393.701; stroke-opacity:1; 
stroke-linecap:round; stroke-linejoin:round;">
</g>
<g style="fill:#840000; fill-opacity:1.0; 
stroke:#840000; stroke-width:393.701; stroke-opacity:1; 
stroke-linecap:round; stroke-linejoin:round;">
</g>
<g style="fill:#840000; fill-opacity:1.0; 
stroke:#840000; stroke-width:629.921; stroke-opacity:1; 
stroke-linecap:round; stroke-linejoin:round;">
</g>
<g style="fill:#840000; fill-opacity:0.0; 
stroke:#840000; stroke-width:629.921; stroke-opacity:1; 
stroke-linecap:round; stroke-linejoin:round;">
<path d="M22759 7222
L22759 7222
" />
<path d="M22759 8222
L22759 8222
" />
<path d="M22759 9222
L22759 9222
" />
<path d="M22759 10222
L22759 10222
" />
<path d="M25759 10222
L25759 10222
" />
<path d="M25759 9222
L25759 9222
" />
<path d="M25759 8222
L25759 8222
" />
<path d="M25759 7222
L25759 7222
" />
</g>
<g style="fill:#840000; fill-opacity:0.0; 
stroke:#840000; stroke-width:0; stroke-opacity:1; 
stroke-linecap:round; stroke-linejoin:round;">
</g>
<g style="fill:#840000; fill-opacity:1.0; 
stroke:#840000; stroke-width:0; stroke-opacity:1; 
stroke-linecap:round; stroke-linejoin:round;">
<polyline style="fill-rule:evenodd;"
points="8226,5654
7546,5654
7546,4974
8226,4974
8226,5654
" /> 
</g>
<g style="fill:#840000; fill-opacity:1.0; 
stroke:#840000; stroke-width:680; stroke-opacity:1; 
stroke-linecap:round; stroke-linejoin:round;">
</g>
<g style="fill:#840000; fill-opacity:0.0; 
stroke:#840000; stroke-width:680; stroke-opacity:1; 
stroke-linecap:round; stroke-linejoin:round;">
<path d="M7886 4314
L7886 4314
" />
<path d="M8886 5314
L8886 5314
" />
<path d="M8886 4314
L8886 4314
" />
<path d="M9886 5314
L9886 5314
" />
<path d="M9886 4314
L9886 4314
" />
<path d="M10886 5314
L10886 5314
" />
<path d="M10886 4314
L10886 4314
" />
<path d="M11886 5314
L11886 5314
" />
<path d="M11886 4314
L11886 4314
" />
<path d="M12886 5314
L12886 5314
" />
<path d="M12886 4314
L12886 4314
" />
<path d="M13886 5314
L13886 5314
" />
<path d="M13886 4314
L13886 4314
" />
<path d="M14886 5314
L14886 5314
" />
<path d="M14886 4314
L14886 4314
" />
<path d="M15886 5314
L15886 5314
" />
<path d="M15886 4314
L15886 4314
" />
<path d="M16886 5314
L16886 5314
" />
<path d="M16886 4314
L16886 4314
" />
<path d="M17886 5314
L17886 5314
" />
<path d="M17886 4314
L17886 4314
" />
<path d="M18886 5314
L18886 5314
" />
<path d="M18886 4314
L18886 4314
" />
<path d="M19886 5314
L19886 5314
" />
<path d="M19886 4314
L19886 4314
" />
<path d="M20886 5314
L20886 5314
" />
<path d="M20886 4314
L20886 4314
" />
<path d="M21886 5314
L21886 5314
" />
<path d="M21886 4314
L21886 4314
" />
<path d="M22886 5314
L22886 5314
" />
<path d="M22886 4314
L22886 4314
" />
<path d="M23886 5314
L23886 5314
" />
<path d="M23886 4314
L23886 4314
" />
<path d="M24886 5314
L24886 5314
" />
<path d="M24886 4314
L24886 4314
" />
<path d="M25886 5314
L25886 5314
" />
<path d="M25886 4314
L25886 4314
" />
<path d="M26886 5314
L26886 5314
" />
<path d="M26886 4314
L26886 4314
" />
</g>
<g style="fill:#840000; fill-opacity:0.0; 
stroke:#840000; stroke-width:0; stroke-opacity:1; 
stroke-linecap:round; stroke-linejoin:round;">
</g>
<g style="fill:#840000; fill-opacity:1.0; 
stroke:#840000; stroke-width:0; stroke-opacity:1; 
stroke-linecap:round; stroke-linejoin:round;">
<polyline style="fill-rule:evenodd;"
points="8287,7727
7607,7727
7607,6927
8287,6927
8287,7727
" /> 
</g>
<g style="fill:#840000; fill-opacity:1.0; 
stroke:#840000; stroke-width:680; stroke-opacity:1; 
stroke-linecap:round; stroke-linejoin:round;">
</g>
<g style="fill:#840000; fill-opacity:0.0; 
stroke:#840000; stroke-width:680; stroke-opacity:1; 
stroke-linecap:round; stroke-linejoin:round;">
<path d="M8947 7387
L8947 7267
" />
<path d="M9947 7387
L9947 7267
" />
<path d="M10947 7387
L10947 7267
" />
</g>
<g style="fill:#840000; fill-opacity:0.0; 
stroke:#840000; stroke-width:0; stroke-opacity:1; 
stroke-linecap:round; stroke-linejoin:round;">
</g>
<g style="fill:#840000; fill-opacity:1.0; 
stroke:#840000; stroke-width:0; stroke-opacity:1; 
stroke-linecap:round; stroke-linejoin:round;">
<polyline style="fill-rule:evenodd;"
points="28947,7555
28652,7555
28652,7082
28947,7082
28947,7555
" /> 
<polyline style="fill-rule:evenodd;"
points="28947,6807
28652,6807
28652,6334
28947,6334
28947,6807
" /> 
<polyline style="fill-rule:evenodd;"
points="28400,11344
28400,10544
29200,10544
29200,11344
28400,11344
" /> 
</g>
<g style="fill:#840000; fill-opacity:1.0; 
stroke:#840000; stroke-width:800; stroke-opacity:1; 
stroke-linecap:round; stroke-linejoin:round;">
</g>
<g style="fill:#840000; fill-opacity:0.0; 
stroke:#840000; stroke-width:800; stroke-opacity:1; 
stroke-linecap:round; stroke-linejoin:round;">
<path d="M28800 11944
L28800 11944
" />
</g>
<g style="fill:#840000; fill-opacity:0.0; 
stroke:#840000; stroke-width:0; stroke-opacity:1; 
stroke-linecap:round; stroke-linejoin:round;">
</g>
<g style="fill:#840000; fill-opacity:1.0; 
stroke:#840000; stroke-width:0; stroke-opacity:1; 
stroke-linecap:round; stroke-linejoin:round;">
<polyline style="fill-rule:evenodd;"
points="28623,8275
28977,8275
28977,8748
28623,8748
28623,8275
" /> 
<polyline style="fill-rule:evenodd;"
points="28623,9141
28977,9141
28977,9614
28623,9614
28623,9141
" /> 
<polyline style="fill-rule:evenodd;"
points="28054,8320
28054,8674
27581,8674
27581,8320
28054,8320
" /> 
<polyline style="fill-rule:evenodd;"
points="27188,8320
27188,8674
26715,8674
26715,8320
27188,8320
" /> 
<polyline style="fill-rule:evenodd;"
points="28079,6720
28079,7074
27606,7074
27606,6720
28079,6720
" /> 
<polyline style="fill-rule:evenodd;"
points="27213,6720
27213,7074
26740,7074
26740,6720
27213,6720
" /> 
<polyline style="fill-rule:evenodd;"
points="9990,9499
9990,9145
10463,9145
10463,9499
9990,9499
" /> 
<polyline style="fill-rule:evenodd;"
points="10856,9499
10856,9145
11329,9145
11329,9499
10856,9499
" /> 
<polyline style="fill-rule:evenodd;"
points="7440,9499
7440,9145
7913,9145
7913,9499
7440,9499
" /> 
<polyline style="fill-rule:evenodd;"
points="8306,9499
8306,9145
8779,9145
8779,9499
8306,9499
" /> 
<polyline style="fill-rule:evenodd;"
points="15235,10919
15915,10919
15915,11719
15235,11719
15235,10919
" /> 
</g>
<g style="fill:#840000; fill-opacity:1.0; 
stroke:#840000; stroke-width:680; stroke-opacity:1; 
stroke-linecap:round; stroke-linejoin:round;">
</g>
<g style="fill:#840000; fill-opacity:0.0; 
stroke:#840000; stroke-width:680; stroke-opacity:1; 
stroke-linecap:round; stroke-linejoin:round;">
<path d="M14575 11259
L14575 11379
" />
<path d="M13575 11259
L13575 11379
" />
<path d="M12575 11259
L12575 11379
" />
</g>
<g style="fill:#840000; fill-opacity:0.0; 
stroke:#840000; stroke-width:0; stroke-opacity:1; 
stroke-linecap:round; stroke-linejoin:round;">
</g>
<g style="fill:#840000; fill-opacity:1.0; 
stroke:#840000; stroke-width:0; stroke-opacity:1; 
stroke-linecap:round; stroke-linejoin:round;">
<polyline style="fill-rule:evenodd;"
points="15235,8919
15915,8919
15915,9719
15235,9719
15235,8919
" /> 
</g>
<g style="fill:#840000; fill-opacity:1.0; 
stroke:#840000; stroke-width:680; stroke-opacity:1; 
stroke-linecap:round; stroke-linejoin:round;">
</g>
<g style="fill:#840000; fill-opacity:0.0; 
stroke:#840000; stroke-width:680; stroke-opacity:1; 
stroke-linecap:round; stroke-linejoin:round;">
<path d="M14575 9259
L14575 9379
" />
<path d="M13575 9259
L13575 9379
" />
<path d="M12575 9259
L12575 9379
" />
</g>
<g style="fill:#840000; fill-opacity:0.0; 
stroke:#840000; stroke-width:0; stroke-opacity:1; 
stroke-linecap:round; stroke-linejoin:round;">
</g>
<g style="fill:#840000; fill-opacity:1.0; 
stroke:#840000; stroke-width:0; stroke-opacity:1; 
stroke-linecap:round; stroke-linejoin:round;">
<polyline style="fill-rule:evenodd;"
points="15235,6919
15915,6919
15915,7719
15235,7719
15235,6919
" /> 
</g>
<g style="fill:#840000; fill-opacity:1.0; 
stroke:#840000; stroke-width:680; stroke-opacity:1; 
stroke-linecap:round; stroke-linejoin:round;">
</g>
<g style="fill:#840000; fill-opacity:0.0; 
stroke:#840000; stroke-width:680; stroke-opacity:1; 
stroke-linecap:round; stroke-linejoin:round;">
<path d="M14575 7259
L14575 7379
" />
<path d="M13575 7259
L13575 7379
" />
<path d="M12575 7259
L12575 7379
" />
</g>
<g style="fill:#840000; fill-opacity:1.0; 
stroke:#840000; stroke-width:0; stroke-opacity:1; 
stroke-linecap:round; stroke-linejoin:round;">
<circle cx="5977.39" cy="4803.15" r="925.197" /> 
</g>
<g style="fill:#840000; fill-opacity:1.0; 
stroke:#840000; stroke-width:393.701; stroke-opacity:1; 
stroke-linecap:round; stroke-linejoin:round;">
</g>
<g style="fill:#840000; fill-opacity:1.0; 
stroke:#840000; stroke-width:0; stroke-opacity:1; 
stroke-linecap:round; stroke-linejoin:round;">
<circle cx="28812" cy="4803.15" r="925.197" /> 
</g>
<g style="fill:#840000; fill-opacity:1.0; 
stroke:#840000; stroke-width:393.701; stroke-opacity:1; 
stroke-linecap:round; stroke-linejoin:round;">
</g>
<g style="fill:#840000; fill-opacity:1.0; 
stroke:#840000; stroke-width:0; stroke-opacity:1; 
stroke-linecap:round; stroke-linejoin:round;">
<circle cx="28812" cy="13858.3" r="925.197" /> 
</g>
<g style="fill:#840000; fill-opacity:1.0; 
stroke:#840000; stroke-width:393.701; stroke-opacity:1; 
stroke-linecap:round; stroke-linejoin:round;">
</g>
<g style="fill:#840000; fill-opacity:1.0; 
stroke:#840000; stroke-width:0; stroke-opacity:1; 
stroke-linecap:round; stroke-linejoin:round;">
<circle cx="5977.39" cy="13858.3" r="925.197" /> 
</g>
<g style="fill:#840000; fill-opacity:1.0; 
stroke:#840000; stroke-width:393.701; stroke-opacity:1; 
stroke-linecap:round; stroke-linejoin:round;">
</g>
<g style="fill:#840000; fill-opacity:1.0; 
stroke:#840000; stroke-width:0; stroke-opacity:1; 
stroke-linecap:round; stroke-linejoin:round;">
<polyline style="fill-rule:evenodd;"
points="5534,9662
5534,8982
6334,8982
6334,9662
5534,9662
" /> 
</g>
<g style="fill:#840000; fill-opacity:1.0; 
stroke:#840000; stroke-width:680; stroke-opacity:1; 
stroke-linecap:round; stroke-linejoin:round;">
</g>
<g style="fill:#840000; fill-opacity:0.0; 
stroke:#840000; stroke-width:680; stroke-opacity:1; 
stroke-linecap:round; stroke-linejoin:round;">
<path d="M5874 10322
L5994 10322
" />
<path d="M5874 11322
L5994 11322
" />
</g>
<g style="fill:#840000; fill-opacity:0.0; 
stroke:#840000; stroke-width:240; stroke-opacity:1; 
stroke-linecap:round; stroke-linejoin:round;">
<path d="M18759 10067
L18759 9727
" />
<path d="M18259 10067
L18259 9727
" />
<path d="M17759 10067
L17759 9727
" />
<path d="M17259 10067
L17259 9727
" />
<path d="M17259 12267
L17259 11927
" />
<path d="M17759 12267
L17759 11927
" />
<path d="M18259 12267
L18259 11927
" />
<path d="M18759 12267
L18759 11927
" />
<path d="M18759 6792
L18759 6452
" />
<path d="M18259 6792
L18259 6452
" />
<path d="M17759 6792
L17759 6452
" />
<path d="M17259 6792
L17259 6452
" />
<path d="M17259 8992
L17259 8652
" />
<path d="M17759 8992
L17759 8652
" />
<path d="M18259 8992
L18259 8652
" />
<path d="M18759 8992
L18759 8652
" />
<path d="M21384 6792
L21384 6452
" />
<path d="M20884 6792
L20884 6452
" />
<path d="M20384 6792
L20384 6452
" />
<path d="M19884 6792
L19884 6452
" />
<path d="M19884 8992
L19884 8652
" />
<path d="M20384 8992
L20384 8652
" />
<path d="M20884 8992
L20884 8652
" />
<path d="M21384 8992
L21384 8652
" />
</g>
<g style="fill:#840000; fill-opacity:0.0; 
stroke:#840000; stroke-width:787; stroke-opacity:1; 
stroke-linecap:round; stroke-linejoin:round;">
<path d="M11146 12350
L11146 13138
" />
<path d="M8665 14024
L9453 14024
" />
<path d="M8567 11661
L9552 11661
" />
</g>
<g style="fill:#840000; fill-opacity:1.0; 
stroke:#840000; stroke-width:0; stroke-opacity:1; 
stroke-linecap:round; stroke-linejoin:round;">
<circle cx="26515.4" cy="13622.6" r="492.126" /> 
</g>
<g style="fill:#840000; fill-opacity:1.0; 
stroke:#840000; stroke-width:393.701; stroke-opacity:1; 
stroke-linecap:round; stroke-linejoin:round;">
</g>
<g style="fill:#840000; fill-opacity:1.0; 
stroke:#840000; stroke-width:0; stroke-opacity:1; 
stroke-linecap:round; stroke-linejoin:round;">
<circle cx="24546.9" cy="13622.6" r="492.126" /> 
</g>
<g style="fill:#840000; fill-opacity:1.0; 
stroke:#840000; stroke-width:393.701; stroke-opacity:1; 
stroke-linecap:round; stroke-linejoin:round;">
</g>
<g style="fill:#840000; fill-opacity:1.0; 
stroke:#840000; stroke-width:0; stroke-opacity:1; 
stroke-linecap:round; stroke-linejoin:round;">
<polyline style="fill-rule:evenodd;"
points="20117,14114
20117,13130
21101,13130
21101,14114
20117,14114
" /> 
<circle cx="22578.4" cy="13622.6" r="492.126" /> 
</g>
<g style="fill:#840000; fill-opacity:1.0; 
stroke:#840000; stroke-width:393.701; stroke-opacity:1; 
stroke-linecap:round; stroke-linejoin:round;">
</g>
<g style="fill:#000000; fill-opacity:1.0; 
stroke:#000000; stroke-width:393.701; stroke-opacity:1; 
stroke-linecap:round; stroke-linejoin:round;">
</g>
<g style="fill:#840000; fill-opacity:1.0; 
stroke:#840000; stroke-width:393.701; stroke-opacity:1; 
stroke-linecap:round; stroke-linejoin:round;">
</g>
<g style="fill:#840000; fill-opacity:1.0; 
stroke:#840000; stroke-width:0; stroke-opacity:1; 
stroke-linecap:round; stroke-linejoin:round;">
<polyline style="fill-rule:evenodd;"
points="28947,7555
28652,7555
28652,7082
28947,7082
28947,7555
" /> 
<polyline style="fill-rule:evenodd;"
points="28947,6807
28652,6807
28652,6334
28947,6334
28947,6807
" /> 
<polyline style="fill-rule:evenodd;"
points="28623,8275
28977,8275
28977,8748
28623,8748
28623,8275
" /> 
<polyline style="fill-rule:evenodd;"
points="28623,9141
28977,9141
28977,9614
28623,9614
28623,9141
" /> 
<polyline style="fill-rule:evenodd;"
points="28054,8320
28054,8674
27581,8674
27581,8320
28054,8320
" /> 
<polyline style="fill-rule:evenodd;"
points="27188,8320
27188,8674
26715,8674
26715,8320
27188,8320
" /> 
<polyline style="fill-rule:evenodd;"
points="28079,6720
28079,7074
27606,7074
27606,6720
28079,6720
" /> 
<polyline style="fill-rule:evenodd;"
points="27213,6720
27213,7074
26740,7074
26740,6720
27213,6720
" /> 
<polyline style="fill-rule:evenodd;"
points="9990,9499
9990,9145
10463,9145
10463,9499
9990,9499
" /> 
<polyline style="fill-rule:evenodd;"
points="10856,9499
10856,9145
11329,9145
11329,9499
10856,9499
" /> 
<polyline style="fill-rule:evenodd;"
points="7440,9499
7440,9145
7913,9145
7913,9499
7440,9499
" /> 
<polyline style="fill-rule:evenodd;"
points="8306,9499
8306,9145
8779,9145
8779,9499
8306,9499
" /> 
</g>
<g style="fill:#840000; fill-opacity:1.0; 
stroke:#840000; stroke-width:240; stroke-opacity:1; 
stroke-linecap:round; stroke-linejoin:round;">
</g>
<g style="fill:#840000; fill-opacity:0.0; 
stroke:#840000; stroke-width:240; stroke-opacity:1; 
stroke-linecap:round; stroke-linejoin:round;">
<path d="M18759 10067
L18759 9727
" />
<path d="M18259 10067
L18259 9727
" />
<path d="M17759 10067
L17759 9727
" />
<path d="M17259 10067
L17259 9727
" />
<path d="M17259 12267
L17259 11927
" />
<path d="M17759 12267
L17759 11927
" />
<path d="M18259 12267
L18259 11927
" />
<path d="M18759 12267
L18759 11927
" />
<path d="M18759 6792
L18759 6452
" />
<path d="M18259 6792
L18259 6452
" />
<path d="M17759 6792
L17759 6452
" />
<path d="M17259 6792
L17259 6452
" />
<path d="M17259 8992
L17259 8652
" />
<path d="M17759 8992
L17759 8652
" />
<path d="M18259 8992
L18259 8652
" />
<path d="M18759 8992
L18759 8652
" />
<path d="M21384 6792
L21384 6452
" />
<path d="M20884 6792
L20884 6452
" />
<path d="M20384 6792
L20384 6452
" />
<path d="M19884 6792
L19884 6452
" />
<path d="M19884 8992
L19884 8652
" />
<path d="M20384 8992
L20384 8652
" />
<path d="M20884 8992
L20884 8652
" />
<path d="M21384 8992
L21384 8652
" />
</g>
<g style="fill:#000000; fill-opacity:0.0; 
stroke:#000000; stroke-width:240; stroke-opacity:1; 
stroke-linecap:round; stroke-linejoin:round;">
</g>
<g style="fill:#008484; fill-opacity:0.0; 
stroke:#008484; stroke-width:240; stroke-opacity:1; 
stroke-linecap:round; stroke-linejoin:round;">
</g>
<g style="fill:#008484; fill-opacity:0.0; 
stroke:#008484; stroke-width:98.4252; stroke-opacity:1; 
stroke-linecap:round; stroke-linejoin:round;">
<path d="M20172 11700
L19947 11700
" />
<path d="M20060 11700
L20060 11307
L20022 11363
L19985 11400
L19947 11419
" />
<path d="M20322 11344
L20341 11325
L20379 11307
L20472 11307
L20510 11325
L20529 11344
L20547 11382
L20547 11419
L20529 11475
L20304 11700
L20547 11700
" />
<path d="M20660 11307
L20791 11700
L20922 11307
" />
<path d="M21860 11325
L21822 11307
L21766 11307
L21710 11325
L21672 11363
L21653 11400
L21635 11475
L21635 11532
L21653 11607
L21672 11644
L21710 11681
L21766 11700
L21803 11700
L21860 11681
L21878 11663
L21878 11532
L21803 11532
" />
<path d="M22272 11700
L22141 11513
" />
<path d="M22047 11700
L22047 11307
L22197 11307
L22235 11325
L22253 11344
L22272 11382
L22272 11438
L22253 11475
L22235 11494
L22197 11513
L22047 11513
" />
<path d="M22441 11494
L22572 11494
" />
<path d="M22628 11700
L22441 11700
L22441 11307
L22628 11307
" />
<path d="M22797 11494
L22928 11494
" />
<path d="M22984 11700
L22797 11700
L22797 11307
L22984 11307
" />
<path d="M23153 11700
L23153 11307
L23378 11700
L23378 11307
" />
<path d="M24391 11700
L24259 11513
" />
<path d="M24166 11700
L24166 11307
L24316 11307
L24353 11325
L24372 11344
L24391 11382
L24391 11438
L24372 11475
L24353 11494
L24316 11513
L24166 11513
" />
<path d="M24559 11494
L24690 11494
" />
<path d="M24747 11700
L24559 11700
L24559 11307
L24747 11307
" />
<path d="M24915 11700
L24915 11307
L25009 11307
L25065 11325
L25103 11363
L25122 11400
L25140 11475
L25140 11532
L25122 11607
L25103 11644
L25065 11681
L25009 11700
L24915 11700
" />
<path d="M26040 11494
L26097 11513
L26115 11532
L26134 11569
L26134 11625
L26115 11663
L26097 11681
L26059 11700
L25909 11700
L25909 11307
L26040 11307
L26078 11325
L26097 11344
L26115 11382
L26115 11419
L26097 11457
L26078 11475
L26040 11494
L25909 11494
" />
<path d="M26490 11700
L26303 11700
L26303 11307
" />
<path d="M26621 11307
L26621 11625
L26640 11663
L26659 11681
L26696 11700
L26771 11700
L26809 11681
L26828 11663
L26846 11625
L26846 11307
" />
<path d="M27034 11494
L27165 11494
" />
<path d="M27221 11700
L27034 11700
L27034 11307
L27221 11307
" />
</g>
<g style="fill:#008484; fill-opacity:0.0; 
stroke:#008484; stroke-width:78.7402; stroke-opacity:1; 
stroke-linecap:round; stroke-linejoin:round;">
<path d="M5107 9242
L5107 9092
L4957 9077
L4972 9092
L4987 9122
L4987 9197
L4972 9227
L4957 9242
L4927 9257
L4852 9257
L4822 9242
L4807 9227
L4792 9197
L4792 9122
L4807 9092
L4822 9077
" />
<path d="M5107 9347
L4792 9452
L5107 9557
" />
<path d="M5107 9962
L5107 10022
L5092 10052
L5062 10082
L5002 10097
L4897 10097
L4837 10082
L4807 10052
L4792 10022
L4792 9962
L4807 9932
L4837 9902
L4897 9887
L5002 9887
L5062 9902
L5092 9932
L5107 9962
" />
<path d="M5107 10232
L4852 10232
L4822 10247
L4807 10262
L4792 10292
L4792 10352
L4807 10382
L4822 10397
L4852 10412
L5107 10412
" />
<path d="M5107 10517
L5107 10697
" />
<path d="M4792 10607
L5107 10607
" />
<path d="M5092 11207
L5107 11177
L5107 11132
L5092 11087
L5062 11057
L5032 11042
L4972 11027
L4927 11027
L4867 11042
L4837 11057
L4807 11087
L4792 11132
L4792 11162
L4807 11207
L4822 11222
L4927 11222
L4927 11162
" />
<path d="M4792 11357
L5107 11357
L4792 11537
L5107 11537
" />
<path d="M4792 11687
L5107 11687
L5107 11762
L5092 11807
L5062 11837
L5032 11852
L4972 11867
L4927 11867
L4867 11852
L4837 11837
L4807 11807
L4792 11762
L4792 11687
" />
</g>
<g style="fill:#008484; fill-opacity:0.0; 
stroke:#008484; stroke-width:59.0551; stroke-opacity:1; 
stroke-linecap:round; stroke-linejoin:round;">
<path d="M13841 13772
L13736 13622
" />
<path d="M13661 13772
L13661 13457
L13781 13457
L13811 13472
L13826 13487
L13841 13517
L13841 13562
L13826 13592
L13811 13607
L13781 13622
L13661 13622
" />
<path d="M14096 13757
L14066 13772
L14006 13772
L13976 13757
L13961 13727
L13961 13607
L13976 13577
L14006 13562
L14066 13562
L14096 13577
L14111 13607
L14111 13637
L13961 13667
" />
<path d="M14216 13562
L14291 13772
L14366 13562
" />
<path d="M14890 13772
L14710 13772
" />
<path d="M14800 13772
L14800 13457
L14770 13502
L14740 13532
L14710 13547
" />
<path d="M15025 13742
L15040 13757
L15025 13772
L15010 13757
L15025 13742
L15025 13772
" />
<path d="M15235 13457
L15265 13457
L15295 13472
L15310 13487
L15325 13517
L15340 13577
L15340 13652
L15325 13712
L15310 13742
L15295 13757
L15265 13772
L15235 13772
L15205 13757
L15190 13742
L15175 13712
L15160 13652
L15160 13577
L15175 13517
L15190 13487
L15205 13472
L15235 13457
" />
<path d="M15805 13892
L15790 13877
L15760 13832
L15745 13802
L15730 13757
L15715 13682
L15715 13622
L15730 13547
L15745 13502
L15760 13472
L15790 13427
L15805 13412
" />
<path d="M16060 13757
L16030 13772
L15970 13772
L15940 13757
L15925 13742
L15910 13712
L15910 13622
L15925 13592
L15940 13577
L15970 13562
L16030 13562
L16060 13577
" />
<path d="M16165 13892
L16180 13877
L16210 13832
L16225 13802
L16240 13757
L16255 13682
L16255 13622
L16240 13547
L16225 13502
L16210 13472
L16180 13427
L16165 13412
" />
<path d="M16630 13487
L16645 13472
L16675 13457
L16750 13457
L16780 13472
L16795 13487
L16810 13517
L16810 13547
L16795 13592
L16615 13772
L16810 13772
" />
<path d="M17005 13457
L17035 13457
L17065 13472
L17080 13487
L17095 13517
L17110 13577
L17110 13652
L17095 13712
L17080 13742
L17065 13757
L17035 13772
L17005 13772
L16975 13757
L16960 13742
L16945 13712
L16930 13652
L16930 13577
L16945 13517
L16960 13487
L16975 13472
L17005 13457
" />
<path d="M17410 13772
L17230 13772
" />
<path d="M17320 13772
L17320 13457
L17290 13502
L17260 13532
L17230 13547
" />
<path d="M17515 13457
L17725 13457
L17590 13772
" />
</g>
<g style="fill:#008484; fill-opacity:0.0; 
stroke:#008484; stroke-width:49.2126; stroke-opacity:1; 
stroke-linecap:round; stroke-linejoin:round;">
<path d="M7441 6131
L7636 6131
L7531 6251
L7576 6251
L7606 6266
L7621 6281
L7636 6311
L7636 6386
L7621 6416
L7606 6431
L7576 6446
L7486 6446
L7456 6431
L7441 6416
" />
<path d="M7771 6416
L7786 6431
L7771 6446
L7756 6431
L7771 6416
L7771 6446
" />
<path d="M7891 6131
L8086 6131
L7981 6251
L8026 6251
L8056 6266
L8071 6281
L8086 6311
L8086 6386
L8071 6416
L8056 6431
L8026 6446
L7936 6446
L7906 6431
L7891 6416
" />
<path d="M8175 6131
L8280 6446
L8385 6131
" />
<path d="M8685 6131
L8865 6131
" />
<path d="M8775 6446
L8775 6131
" />
<path d="M8940 6131
L9150 6446
" />
<path d="M9150 6131
L8940 6446
" />
<path d="M9930 6446
L9825 6296
" />
<path d="M9750 6446
L9750 6131
L9870 6131
L9900 6146
L9915 6161
L9930 6191
L9930 6236
L9915 6266
L9900 6281
L9870 6296
L9750 6296
" />
<path d="M10035 6131
L10245 6446
" />
<path d="M10245 6131
L10035 6446
" />
<path d="M10770 6146
L10740 6131
L10695 6131
L10650 6146
L10620 6176
L10605 6206
L10590 6266
L10590 6311
L10605 6371
L10620 6401
L10650 6431
L10695 6446
L10725 6446
L10770 6431
L10785 6416
L10785 6311
L10725 6311
" />
<path d="M10920 6446
L10920 6131
L11100 6446
L11100 6131
" />
<path d="M11250 6446
L11250 6131
L11325 6131
L11370 6146
L11400 6176
L11415 6206
L11430 6266
L11430 6311
L11415 6371
L11400 6401
L11370 6431
L11325 6446
L11250 6446
" />
</g>
<g style="fill:#008484; fill-opacity:0.0; 
stroke:#008484; stroke-width:98.4252; stroke-opacity:1; 
stroke-linecap:round; stroke-linejoin:round;">
<path d="M14759 10666
L14759 10422
L14909 10553
L14909 10497
L14927 10460
L14946 10441
L14984 10422
L15077 10422
L15115 10441
L15134 10460
L15152 10497
L15152 10610
L15134 10647
L15115 10666
" />
<path d="M15152 10291
L14890 10085
" />
<path d="M14890 10291
L15152 10085
" />
<path d="M15152 9635
L14759 9635
" />
<path d="M14796 9466
L14777 9447
L14759 9410
L14759 9316
L14777 9279
L14796 9260
L14834 9241
L14871 9241
L14927 9260
L15152 9485
L15152 9241
" />
<path d="M15115 8847
L15134 8866
L15152 8922
L15152 8960
L15134 9016
L15096 9054
L15059 9072
L14984 9091
L14927 9091
L14852 9072
L14815 9054
L14777 9016
L14759 8960
L14759 8922
L14777 8866
L14796 8847
" />
</g>
<g style="fill:#008484; fill-opacity:0.0; 
stroke:#008484; stroke-width:49.2126; stroke-opacity:1; 
stroke-linecap:round; stroke-linejoin:round;">
<path d="M11978 6431
L12023 6446
L12098 6446
L12128 6431
L12143 6416
L12158 6386
L12158 6356
L12143 6326
L12128 6311
L12098 6296
L12038 6281
L12008 6266
L11993 6251
L11978 6221
L11978 6191
L11993 6161
L12008 6146
L12038 6131
L12113 6131
L12158 6146
" />
<path d="M12293 6446
L12293 6131
L12368 6131
L12413 6146
L12443 6176
L12458 6206
L12473 6266
L12473 6311
L12458 6371
L12443 6401
L12413 6431
L12368 6446
L12293 6446
" />
<path d="M12593 6356
L12743 6356
" />
<path d="M12563 6446
L12668 6131
L12773 6446
" />
<path d="M13103 6431
L13148 6446
L13223 6446
L13253 6431
L13268 6416
L13283 6386
L13283 6356
L13268 6326
L13253 6311
L13223 6296
L13163 6281
L13133 6266
L13118 6251
L13103 6221
L13103 6191
L13118 6161
L13133 6146
L13163 6131
L13238 6131
L13283 6146
" />
<path d="M13598 6416
L13583 6431
L13538 6446
L13508 6446
L13463 6431
L13433 6401
L13418 6371
L13403 6311
L13403 6266
L13418 6206
L13433 6176
L13463 6146
L13508 6131
L13538 6131
L13583 6146
L13598 6161
" />
<path d="M13883 6446
L13733 6446
L13733 6131
" />
<path d="M14393 6146
L14363 6131
L14318 6131
L14273 6146
L14243 6176
L14228 6206
L14213 6266
L14213 6311
L14228 6371
L14243 6401
L14273 6431
L14318 6446
L14348 6446
L14393 6431
L14408 6416
L14408 6311
L14348 6311
" />
<path d="M14543 6446
L14543 6131
L14723 6446
L14723 6131
" />
<path d="M14873 6446
L14873 6131
L14948 6131
L14993 6146
L15023 6176
L15038 6206
L15053 6266
L15053 6311
L15038 6371
L15023 6401
L14993 6431
L14948 6446
L14873 6446
" />
<path d="M15398 6131
L15593 6131
L15488 6251
L15533 6251
L15563 6266
L15578 6281
L15593 6311
L15593 6386
L15578 6416
L15563 6431
L15533 6446
L15443 6446
L15413 6431
L15398 6416
" />
<path d="M15728 6416
L15743 6431
L15728 6446
L15713 6431
L15728 6416
L15728 6446
" />
<path d="M15848 6131
L16043 6131
L15938 6251
L15983 6251
L16013 6266
L16028 6281
L16043 6311
L16043 6386
L16028 6416
L16013 6431
L15983 6446
L15893 6446
L15863 6431
L15848 6416
" />
<path d="M16133 6131
L16238 6446
L16343 6131
" />
<path d="M12107 14940
L12107 14625
L12212 14850
L12317 14625
L12317 14940
" />
<path d="M12602 14940
L12602 14775
L12587 14745
L12557 14730
L12497 14730
L12467 14745
" />
<path d="M12602 14925
L12572 14940
L12497 14940
L12467 14925
L12452 14895
L12452 14865
L12467 14835
L12497 14820
L12572 14820
L12602 14805
" />
<path d="M12887 14940
L12887 14625
" />
<path d="M12887 14925
L12857 14940
L12797 14940
L12767 14925
L12752 14910
L12737 14880
L12737 14790
L12752 14760
L12767 14745
L12797 14730
L12857 14730
L12887 14745
" />
<path d="M13157 14925
L13127 14940
L13067 14940
L13037 14925
L13022 14895
L13022 14775
L13037 14745
L13067 14730
L13127 14730
L13157 14745
L13172 14775
L13172 14805
L13022 14835
" />
<path d="M13547 14940
L13547 14730
" />
<path d="M13547 14625
L13532 14640
L13547 14655
L13562 14640
L13547 14625
L13547 14655
" />
<path d="M13697 14730
L13697 14940
" />
<path d="M13697 14760
L13712 14745
L13742 14730
L13787 14730
L13817 14745
L13832 14775
L13832 14940
" />
<path d="M14222 14940
L14222 14625
L14342 14625
L14372 14640
L14387 14655
L14402 14685
L14402 14730
L14387 14760
L14372 14775
L14342 14790
L14222 14790
" />
<path d="M14582 14940
L14552 14925
L14537 14895
L14537 14625
" />
<path d="M14747 14940
L14717 14925
L14702 14910
L14687 14880
L14687 14790
L14702 14760
L14717 14745
L14747 14730
L14792 14730
L14822 14745
L14837 14760
L14852 14790
L14852 14880
L14837 14910
L14822 14925
L14792 14940
L14747 14940
" />
<path d="M14957 14730
L15032 14940
L15107 14730
" />
<path d="M15362 14940
L15362 14625
" />
<path d="M15362 14925
L15332 14940
L15272 14940
L15242 14925
L15227 14910
L15212 14880
L15212 14790
L15227 14760
L15242 14745
L15272 14730
L15332 14730
L15362 14745
" />
<path d="M15512 14940
L15512 14730
" />
<path d="M15512 14625
L15497 14640
L15512 14655
L15527 14640
L15512 14625
L15512 14655
" />
<path d="M15632 14730
L15707 14940
L15782 14730
" />
<path d="M15917 14925
L15917 14940
L15902 14970
L15887 14985
" />
<path d="M16397 14775
L16442 14790
L16457 14805
L16472 14835
L16472 14880
L16457 14910
L16442 14925
L16412 14940
L16292 14940
L16292 14625
L16397 14625
L16427 14640
L16442 14655
L16457 14685
L16457 14715
L16442 14745
L16427 14760
L16397 14775
L16292 14775
" />
<path d="M16742 14730
L16742 14940
" />
<path d="M16607 14730
L16607 14895
L16622 14925
L16652 14940
L16697 14940
L16727 14925
L16742 14910
" />
<path d="M16937 14940
L16907 14925
L16892 14895
L16892 14625
" />
<path d="M17192 14730
L17192 14985
L17177 15015
L17162 15030
L17132 15045
L17087 15045
L17057 15030
" />
<path d="M17192 14925
L17162 14940
L17102 14940
L17072 14925
L17057 14910
L17042 14880
L17042 14790
L17057 14760
L17072 14745
L17102 14730
L17162 14730
L17192 14745
" />
<path d="M17477 14940
L17477 14775
L17462 14745
L17432 14730
L17372 14730
L17342 14745
" />
<path d="M17477 14925
L17447 14940
L17372 14940
L17342 14925
L17327 14895
L17327 14865
L17342 14835
L17372 14820
L17447 14820
L17477 14805
" />
<path d="M17627 14940
L17627 14730
" />
<path d="M17627 14790
L17642 14760
L17657 14745
L17687 14730
L17717 14730
" />
<path d="M17822 14940
L17822 14730
" />
<path d="M17822 14625
L17807 14640
L17822 14655
L17837 14640
L17822 14625
L17822 14655
" />
<path d="M18107 14940
L18107 14775
L18092 14745
L18062 14730
L18002 14730
L17972 14745
" />
<path d="M18107 14925
L18077 14940
L18002 14940
L17972 14925
L17957 14895
L17957 14865
L17972 14835
L18002 14820
L18077 14820
L18107 14805
" />
<path d="M18272 14925
L18272 14940
L18257 14970
L18242 14985
" />
<path d="M18646 14775
L18751 14775
" />
<path d="M18796 14940
L18646 14940
L18646 14625
L18796 14625
" />
<path d="M18931 14625
L18931 14880
L18946 14910
L18961 14925
L18991 14940
L19051 14940
L19081 14925
L19096 14910
L19111 14880
L19111 14625
" />
</g>
<g style="fill:#008484; fill-opacity:0.0; 
stroke:#008484; stroke-width:59.0551; stroke-opacity:1; 
stroke-linecap:round; stroke-linejoin:round;">
<path d="M13659 14245
L13659 13930
" />
<path d="M13794 14245
L13794 14080
L13779 14050
L13749 14035
L13704 14035
L13674 14050
L13659 14065
" />
<path d="M13899 14035
L14019 14035
" />
<path d="M13944 13930
L13944 14200
L13959 14230
L13989 14245
L14019 14245
" />
<path d="M14079 14035
L14199 14035
" />
<path d="M14124 13930
L14124 14200
L14139 14230
L14169 14245
L14199 14245
" />
<path d="M14304 14035
L14304 14350
" />
<path d="M14304 14050
L14334 14035
L14394 14035
L14424 14050
L14439 14065
L14454 14095
L14454 14185
L14439 14215
L14424 14230
L14394 14245
L14334 14245
L14304 14230
" />
<path d="M14589 14215
L14604 14230
L14589 14245
L14574 14230
L14589 14215
L14589 14245
" />
<path d="M14589 14050
L14604 14065
L14589 14080
L14574 14065
L14589 14050
L14589 14080
" />
<path d="M14964 13915
L14694 14320
" />
<path d="M15294 13915
L15024 14320
" />
<path d="M15534 14245
L15534 14080
L15519 14050
L15489 14035
L15429 14035
L15399 14050
" />
<path d="M15534 14230
L15504 14245
L15429 14245
L15399 14230
L15384 14200
L15384 14170
L15399 14140
L15429 14125
L15504 14125
L15534 14110
" />
<path d="M15683 14035
L15683 14245
" />
<path d="M15683 14065
L15698 14050
L15728 14035
L15773 14035
L15803 14050
L15818 14080
L15818 14245
" />
<path d="M16103 14245
L16103 14080
L16088 14050
L16058 14035
L15998 14035
L15968 14050
" />
<path d="M16103 14230
L16073 14245
L15998 14245
L15968 14230
L15953 14200
L15953 14170
L15968 14140
L15998 14125
L16073 14125
L16103 14110
" />
<path d="M16223 14035
L16298 14245
L16373 14035
" />
<path d="M16493 14245
L16493 14035
" />
<path d="M16493 13930
L16478 13945
L16493 13960
L16508 13945
L16493 13930
L16493 13960
" />
<path d="M16643 14215
L16658 14230
L16643 14245
L16628 14230
L16643 14215
L16643 14245
" />
<path d="M16748 14035
L16868 14035
" />
<path d="M16793 13930
L16793 14200
L16808 14230
L16838 14245
L16868 14245
" />
<path d="M17093 14230
L17063 14245
L17003 14245
L16973 14230
L16958 14200
L16958 14080
L16973 14050
L17003 14035
L17063 14035
L17093 14050
L17108 14080
L17108 14110
L16958 14140
" />
<path d="M17378 14230
L17348 14245
L17288 14245
L17258 14230
L17243 14215
L17228 14185
L17228 14095
L17243 14065
L17258 14050
L17288 14035
L17348 14035
L17378 14050
" />
<path d="M17513 14245
L17513 13930
" />
<path d="M17648 14245
L17648 14080
L17633 14050
L17603 14035
L17558 14035
L17528 14050
L17513 14065
" />
<path d="M17798 14035
L17798 14245
" />
<path d="M17798 14065
L17813 14050
L17843 14035
L17888 14035
L17918 14050
L17933 14080
L17933 14245
" />
<path d="M18128 14245
L18098 14230
L18083 14215
L18068 14185
L18068 14095
L18083 14065
L18098 14050
L18128 14035
L18173 14035
L18203 14050
L18218 14065
L18233 14095
L18233 14185
L18218 14215
L18203 14230
L18173 14245
L18128 14245
" />
<path d="M18413 14245
L18383 14230
L18368 14200
L18368 13930
" />
<path d="M18578 14245
L18548 14230
L18533 14215
L18518 14185
L18518 14095
L18533 14065
L18548 14050
L18578 14035
L18623 14035
L18653 14050
L18668 14065
L18683 14095
L18683 14185
L18668 14215
L18653 14230
L18623 14245
L18578 14245
" />
<path d="M18953 14035
L18953 14290
L18938 14320
L18923 14335
L18893 14350
L18848 14350
L18818 14335
" />
<path d="M18953 14230
L18923 14245
L18863 14245
L18833 14230
L18818 14215
L18803 14185
L18803 14095
L18818 14065
L18833 14050
L18863 14035
L18923 14035
L18953 14050
" />
<path d="M19073 14035
L19148 14245
" />
<path d="M19223 14035
L19148 14245
L19118 14320
L19103 14335
L19073 14350
" />
</g>
<g style="fill:#008484; fill-opacity:0.0; 
stroke:#008484; stroke-width:98.4252; stroke-opacity:1; 
stroke-linecap:round; stroke-linejoin:round;">
<path d="M13678 13088
L13866 13088
" />
<path d="M13641 13200
L13772 12807
L13903 13200
" />
<path d="M14035 13200
L14035 12807
L14260 13200
L14260 12807
" />
<path d="M14428 13088
L14616 13088
" />
<path d="M14391 13200
L14522 12807
L14653 13200
" />
<path d="M14728 12807
L14860 13200
L14991 12807
" />
<path d="M15122 13200
L15122 12807
" />
<path d="M15797 13200
L15609 13200
L15609 12807
" />
<path d="M15928 13200
L15928 12938
" />
<path d="M15928 12807
L15909 12825
L15928 12844
L15947 12825
L15928 12807
L15928 12844
" />
<path d="M16284 12938
L16284 13256
L16266 13294
L16247 13313
L16209 13331
L16153 13331
L16116 13313
" />
<path d="M16284 13181
L16247 13200
L16172 13200
L16134 13181
L16116 13163
L16097 13125
L16097 13013
L16116 12975
L16134 12957
L16172 12938
L16247 12938
L16284 12957
" />
<path d="M16472 13200
L16472 12807
" />
<path d="M16641 13200
L16641 12994
L16622 12957
L16584 12938
L16528 12938
L16491 12957
L16472 12975
" />
<path d="M16772 12938
L16922 12938
" />
<path d="M16828 12807
L16828 13144
L16847 13181
L16884 13200
L16922 13200
" />
<path d="M17353 12938
L17353 13331
" />
<path d="M17353 12957
L17390 12938
L17465 12938
L17503 12957
L17522 12975
L17540 13013
L17540 13125
L17522 13163
L17503 13181
L17465 13200
L17390 13200
L17353 13181
" />
<path d="M17709 13200
L17709 12807
" />
<path d="M17709 12994
L17934 12994
" />
<path d="M17934 13200
L17934 12807
" />
<path d="M18103 13088
L18290 13088
" />
<path d="M18065 13200
L18197 12807
L18328 13200
" />
<path d="M18403 12807
L18628 12807
" />
<path d="M18515 13200
L18515 12807
" />
</g>
<g style="fill:#008484; fill-opacity:0.0; 
stroke:#008484; stroke-width:59.0551; stroke-opacity:1; 
stroke-linecap:round; stroke-linejoin:round;">
<path d="M22813 6319
L22813 6819
" />
<path d="M25706 6319
L25706 6819
" />
<path d="M25706 11126
L25706 10626
" />
<path d="M22813 11126
L22813 10626
" />
<path d="M22813 6319
L25706 6319
" />
<path d="M22813 11126
L25706 11126
" />
<path d="M22813 6819
L22444 6819
" />
<path d="M27386 3814
L7386 3814
" />
<path d="M8386 5814
L27386 5814
" />
<path d="M27386 3814
L27386 5814
" />
<path d="M7386 3814
L7386 4814
" />
<path d="M7276 5314
L7276 5925
" />
<path d="M7386 4814
L8386 4814
" />
<path d="M8386 4814
L8386 5814
" />
<path d="M7276 5925
L7886 5925
" />
<path d="M8447 7827
L11447 7827
" />
<path d="M8447 6827
L11447 6827
" />
<path d="M7337 6717
L7947 6717
" />
<path d="M11447 7827
L11447 6827
" />
<path d="M8447 6827
L8447 7827
" />
<path d="M7947 7937
L7337 7937
" />
<path d="M7337 7937
L7337 6717
" />
<path d="M28564 7082
L28564 6807
" />
<path d="M29036 6807
L29036 7082
" />
<path d="M29300 11444
L29300 12444
" />
<path d="M29410 10334
L29410 10944
" />
<path d="M29300 11444
L28300 11444
" />
<path d="M28189 10944
L28189 10334
" />
<path d="M28189 10334
L29410 10334
" />
<path d="M28300 11444
L28300 12444
" />
<path d="M28300 12444
L29300 12444
" />
<path d="M28534 9141
L28534 8748
" />
<path d="M29065 8748
L29065 9141
" />
<path d="M27188 8231
L27581 8231
" />
<path d="M27581 8763
L27188 8763
" />
<path d="M27213 6631
L27606 6631
" />
<path d="M27606 7163
L27213 7163
" />
<path d="M10856 9588
L10463 9588
" />
<path d="M10463 9056
L10856 9056
" />
<path d="M8306 9588
L7913 9588
" />
<path d="M7913 9056
L8306 9056
" />
<path d="M15075 10819
L12075 10819
" />
<path d="M15075 11819
L12075 11819
" />
<path d="M16185 11930
L15575 11930
" />
<path d="M12075 10819
L12075 11819
" />
<path d="M15075 11819
L15075 10819
" />
<path d="M15575 10709
L16185 10709
" />
<path d="M16185 10709
L16185 11930
" />
<path d="M15075 8819
L12075 8819
" />
<path d="M15075 9819
L12075 9819
" />
<path d="M16185 9930
L15575 9930
" />
<path d="M12075 8819
L12075 9819
" />
<path d="M15075 9819
L15075 8819
" />
<path d="M15575 8709
L16185 8709
" />
<path d="M16185 8709
L16185 9930
" />
<path d="M15075 6819
L12075 6819
" />
<path d="M15075 7819
L12075 7819
" />
<path d="M16185 7930
L15575 7930
" />
<path d="M12075 6819
L12075 7819
" />
<path d="M15075 7819
L15075 6819
" />
<path d="M15575 6709
L16185 6709
" />
<path d="M16185 6709
L16185 7930
" />
</g>
<g style="fill:#008484; fill-opacity:1.0; 
stroke:#008484; stroke-width:3.93701; stroke-opacity:1; 
stroke-linecap:round; stroke-linejoin:round;">
<polyline style="fill-rule:evenodd;"
points="13352,14178
12019,14178
12019,12912
12219,12912
12219,13978
13252,13978
13252,12912
12219,12912
12019,12912
12019,12812
13352,12812
13352,14178
" /> 
</g>
<g style="fill:#008484; fill-opacity:1.0; 
stroke:#008484; stroke-width:59.0551; stroke-opacity:1; 
stroke-linecap:round; stroke-linejoin:round;">
</g>
<g style="fill:#008484; fill-opacity:0.0; 
stroke:#008484; stroke-width:59.0551; stroke-opacity:1; 
stroke-linecap:round; stroke-linejoin:round;">
<path d="M5434 9822
L5434 11822
" />
<path d="M5434 11822
L6434 11822
" />
<path d="M6434 11822
L6434 9822
" />
<path d="M6545 8712
L6545 9322
" />
<path d="M6434 9822
L5434 9822
" />
<path d="M5324 9322
L5324 8712
" />
<path d="M5324 8712
L6545 8712
" />
<circle cx="18759.9" cy="10697.6" r="50" /> 
<path d="M19009 10447
L17009 10447
" />
<path d="M19009 11747
L17009 11747
" />
<path d="M19009 10247
L17009 10247
" />
<path d="M19009 10247
L19009 11747
" />
<path d="M17009 10247
L17009 11747
" />
<circle cx="18759.9" cy="7422.64" r="50" /> 
<path d="M19009 7172
L17009 7172
" />
<path d="M19009 8472
L17009 8472
" />
<path d="M19009 6972
L17009 6972
" />
<path d="M19009 6972
L19009 8472
" />
<path d="M17009 6972
L17009 8472
" />
<circle cx="21384.9" cy="7422.64" r="50" /> 
<path d="M21634 7172
L19634 7172
" />
<path d="M21634 8472
L19634 8472
" />
<path d="M21634 6972
L19634 6972
" />
<path d="M21634 6972
L21634 8472
" />
<path d="M19634 6972
L19634 8472
" />
</g>
<g style="fill:#008484; fill-opacity:0.0; 
stroke:#008484; stroke-width:150; stroke-opacity:1; 
stroke-linecap:round; stroke-linejoin:round;">
<path d="M7287 15224
L10831 15224
" />
<path d="M7287 16996
L10831 16996
" />
<path d="M10831 16996
L10831 11248
" />
<path d="M10831 11248
L7287 11248
" />
<path d="M7287 11248
L7287 16996
" />
</g>
<g style="fill:#008484; fill-opacity:0.0; 
stroke:#008484; stroke-width:59.0551; stroke-opacity:1; 
stroke-linecap:round; stroke-linejoin:round;">
<circle cx="26515.4" cy="13662" r="787.402" /> 
<circle cx="24546.9" cy="13662" r="787.402" /> 
<circle cx="22578.4" cy="13662" r="787.402" /> 
<circle cx="20609.9" cy="13662" r="787.402" /> 
</g>
<g style="fill:#C2C200; fill-opacity:0.0; 
stroke:#C2C200; stroke-width:59.0551; stroke-opacity:1; 
stroke-linecap:round; stroke-linejoin:round;">
<path d="M9110 8037
L9110 8356
L9129 8393
L9148 8412
L9185 8431
L9260 8431
L9298 8412
L9316 8393
L9335 8356
L9335 8037
" />
<path d="M9504 8318
L9691 8318
" />
<path d="M9466 8431
L9598 8037
L9729 8431
" />
<path d="M10085 8431
L9954 8243
" />
<path d="M9860 8431
L9860 8037
L10010 8037
L10047 8056
L10066 8074
L10085 8112
L10085 8168
L10066 8206
L10047 8224
L10010 8243
L9860 8243
" />
<path d="M10197 8037
L10422 8037
" />
<path d="M10310 8431
L10310 8037
" />
<path d="M29700 7034
L29719 7052
L29738 7109
L29738 7146
L29719 7202
L29681 7240
L29644 7259
L29569 7277
L29513 7277
L29438 7259
L29400 7240
L29363 7202
L29344 7146
L29344 7109
L29363 7052
L29381 7034
" />
<path d="M29738 6659
L29738 6884
" />
<path d="M29738 6771
L29344 6771
L29400 6809
L29438 6846
L29456 6884
" />
<path d="M29620 11784
L29901 11784
L29957 11803
L29995 11841
L30013 11897
L30013 11934
" />
<path d="M30013 11597
L29620 11597
L29620 11447
L29638 11409
L29657 11391
L29695 11372
L29751 11372
L29788 11391
L29807 11409
L29826 11447
L29826 11597
" />
<path d="M30013 10997
L30013 11222
" />
<path d="M30013 11109
L29620 11109
L29676 11147
L29713 11184
L29732 11222
" />
<path d="M29726 9010
L29538 9141
" />
<path d="M29726 9235
L29332 9235
L29332 9085
L29351 9047
L29370 9029
L29407 9010
L29463 9010
L29501 9029
L29520 9047
L29538 9085
L29538 9235
" />
<path d="M29726 8635
L29726 8860
" />
<path d="M29726 8748
L29332 8748
L29388 8785
L29426 8823
L29445 8860
" />
<path d="M27319 9345
L27188 9157
" />
<path d="M27094 9345
L27094 8951
L27244 8951
L27281 8970
L27300 8988
L27319 9026
L27319 9082
L27300 9120
L27281 9138
L27244 9157
L27094 9157
" />
<path d="M27469 8988
L27487 8970
L27525 8951
L27619 8951
L27656 8970
L27675 8988
L27694 9026
L27694 9063
L27675 9120
L27450 9345
L27694 9345
" />
<path d="M27344 7823
L27213 7636
" />
<path d="M27119 7823
L27119 7430
L27269 7430
L27306 7448
L27325 7467
L27344 7505
L27344 7561
L27325 7598
L27306 7617
L27269 7636
L27119 7636
" />
<path d="M27475 7430
L27719 7430
L27587 7580
L27644 7580
L27681 7598
L27700 7617
L27719 7655
L27719 7748
L27700 7786
L27681 7805
L27644 7823
L27531 7823
L27494 7805
L27475 7786
" />
<path d="M11269 10125
L11138 9938
" />
<path d="M11044 10125
L11044 9732
L11194 9732
L11231 9750
L11250 9769
L11269 9807
L11269 9863
L11250 9900
L11231 9919
L11194 9938
L11044 9938
" />
<path d="M11606 9863
L11606 10125
" />
<path d="M11512 9713
L11419 9994
L11662 9994
" />
<path d="M7319 10125
L7188 9938
" />
<path d="M7094 10125
L7094 9732
L7244 9732
L7281 9750
L7300 9769
L7319 9807
L7319 9863
L7300 9900
L7281 9919
L7244 9938
L7094 9938
" />
<path d="M7675 9732
L7487 9732
L7469 9919
L7487 9900
L7525 9882
L7619 9882
L7656 9900
L7675 9919
L7694 9957
L7694 10050
L7675 10088
L7656 10106
L7619 10125
L7525 10125
L7487 10106
L7469 10088
" />
<path d="M5541 8525
L5541 8132
L5691 8132
L5728 8150
L5747 8169
L5766 8207
L5766 8263
L5747 8300
L5728 8319
L5691 8338
L5541 8338
" />
<path d="M5934 8525
L5934 8132
" />
<path d="M6347 8525
L6216 8338
" />
<path d="M6122 8525
L6122 8132
L6272 8132
L6309 8150
L6328 8169
L6347 8207
L6347 8263
L6328 8300
L6309 8319
L6272 8338
L6122 8338
" />
<path d="M17972 11213
L17934 11194
L17897 11156
L17841 11100
L17803 11082
L17766 11082
" />
<path d="M17784 11175
L17747 11156
L17709 11119
L17691 11044
L17691 10913
L17709 10838
L17747 10800
L17784 10782
L17859 10782
L17897 10800
L17934 10838
L17953 10913
L17953 11044
L17934 11119
L17897 11156
L17859 11175
L17784 11175
" />
<path d="M18328 11175
L18103 11175
" />
<path d="M18216 11175
L18216 10782
L18178 10838
L18141 10875
L18103 10894
" />
<path d="M17972 7938
L17934 7919
L17897 7881
L17841 7825
L17803 7807
L17766 7807
" />
<path d="M17784 7900
L17747 7881
L17709 7844
L17691 7769
L17691 7638
L17709 7563
L17747 7525
L17784 7507
L17859 7507
L17897 7525
L17934 7563
L17953 7638
L17953 7769
L17934 7844
L17897 7881
L17859 7900
L17784 7900
" />
<path d="M18103 7544
L18122 7525
L18159 7507
L18253 7507
L18291 7525
L18309 7544
L18328 7582
L18328 7619
L18309 7675
L18084 7900
L18328 7900
" />
<path d="M20597 7938
L20559 7919
L20522 7881
L20466 7825
L20428 7807
L20391 7807
" />
<path d="M20409 7900
L20372 7881
L20334 7844
L20316 7769
L20316 7638
L20334 7563
L20372 7525
L20409 7507
L20484 7507
L20522 7525
L20559 7563
L20578 7638
L20578 7769
L20559 7844
L20522 7881
L20484 7900
L20409 7900
" />
<path d="M20709 7507
L20953 7507
L20822 7657
L20878 7657
L20916 7675
L20934 7694
L20953 7732
L20953 7825
L20934 7863
L20916 7881
L20878 7900
L20766 7900
L20728 7881
L20709 7863
" />
</g>
<g style="fill:#008484; fill-opacity:0.0; 
stroke:#008484; stroke-width:59.0551; stroke-opacity:1; 
stroke-linecap:round; stroke-linejoin:round;">
</g>
<g style="fill:#008484; fill-opacity:0.0; 
stroke:#008484; stroke-width:157.48; stroke-opacity:1; 
stroke-linecap:round; stroke-linejoin:round;">
<path d="M8596 10918
L8191 10918
" />
<path d="M8393 10918
L8393 10209
L8326 10310
L8258 10378
L8191 10412
" />
<path d="M8866 10277
L8899 10243
L8967 10209
L9136 10209
L9203 10243
L9237 10277
L9271 10344
L9271 10412
L9237 10513
L8832 10918
L9271 10918
" />
<path d="M9473 10209
L9709 10918
L9946 10209
" />
</g>
<g style="fill:#000000; fill-opacity:0.0; 
stroke:#000000; stroke-width:157.48; stroke-opacity:1; 
stroke-linecap:round; stroke-linejoin:round;">
</g>
<g style="fill:#848484; fill-opacity:0.0; 
stroke:#848484; stroke-width:157.48; stroke-opacity:1; 
stroke-linecap:round; stroke-linejoin:round;">
</g>
<g style="fill:#848484; fill-opacity:0.0; 
stroke:#848484; stroke-width:118.11; stroke-opacity:1; 
stroke-linecap:round; stroke-linejoin:round;">
<path d="M27307 208
L27673 208
L27476 433
L27560 433
L27616 461
L27644 489
L27673 545
L27673 686
L27644 742
L27616 770
L27560 798
L27391 798
L27335 770
L27307 742
" />
<path d="M27926 742
L27954 770
L27926 798
L27898 770
L27926 742
L27926 798
" />
<path d="M28488 208
L28207 208
L28179 489
L28207 461
L28263 433
L28404 433
L28460 461
L28488 489
L28516 545
L28516 686
L28488 742
L28460 770
L28404 798
L28263 798
L28207 770
L28179 742
" />
<path d="M28882 208
L28938 208
L28994 236
L29022 264
L29051 320
L29079 433
L29079 573
L29051 686
L29022 742
L28994 770
L28938 798
L28882 798
L28826 770
L28797 742
L28769 686
L28741 573
L28741 433
L28769 320
L28797 264
L28826 236
L28882 208
" />
<path d="M29444 208
L29501 208
L29557 236
L29585 264
L29613 320
L29641 433
L29641 573
L29613 686
L29585 742
L29557 770
L29501 798
L29444 798
L29388 770
L29360 742
L29332 686
L29304 573
L29304 433
L29332 320
L29360 264
L29388 236
L29444 208
" />
<path d="M30344 798
L30344 404
" />
<path d="M30344 461
L30372 433
L30429 404
L30513 404
L30569 433
L30597 489
L30597 798
" />
<path d="M30597 489
L30625 433
L30682 404
L30766 404
L30822 433
L30850 489
L30850 798
" />
<path d="M31132 798
L31132 404
" />
<path d="M31132 461
L31160 433
L31216 404
L31300 404
L31357 433
L31385 489
L31385 798
" />
<path d="M31385 489
L31413 433
L31469 404
L31553 404
L31610 433
L31638 489
L31638 798
" />
<path d="M28812 1062
L30189 1062
" />
<path d="M28812 4803
L28812 0
" />
<path d="M30189 4803
L30189 0
" />
<path d="M30189 1062
L29746 1293
" />
<path d="M30189 1062
L29746 832
" />
<path d="M28812 1062
L29255 1293
" />
<path d="M28812 1062
L29255 832
" />
</g>
<g style="fill:#848484; fill-opacity:0.0; 
stroke:#848484; stroke-width:19.685; stroke-opacity:1; 
stroke-linecap:round; stroke-linejoin:round;">
<path d="M22346 6258
L22346 11199
" />
<path d="M26165 6258
L26165 11199
" />
<path d="M22346 6258
L26165 6258
" />
<path d="M22346 11199
L26165 11199
" />
<path d="M7197 6003
L27591 6003
" />
<path d="M7197 3622
L27591 3622
" />
<path d="M7197 6003
L7197 3622
" />
<path d="M27591 6003
L27591 3622
" />
<path d="M7258 8016
L11648 8016
" />
<path d="M7258 6638
L11648 6638
" />
<path d="M7258 8016
L7258 6638
" />
<path d="M11648 8016
L11648 6638
" />
<path d="M28504 7673
L28504 6216
" />
<path d="M29095 7673
L29095 6216
" />
<path d="M28504 7673
L29095 7673
" />
<path d="M28504 6216
L29095 6216
" />
<path d="M28111 10255
L28111 12637
" />
<path d="M29489 10255
L29489 12637
" />
<path d="M28111 10255
L29489 10255
" />
<path d="M28111 12637
L29489 12637
" />
<path d="M29115 8157
L29115 9732
" />
<path d="M28485 8157
L28485 9732
" />
<path d="M29115 8157
L28485 8157
" />
<path d="M29115 9732
L28485 9732
" />
<path d="M28172 8812
L26597 8812
" />
<path d="M28172 8182
L26597 8182
" />
<path d="M28172 8812
L28172 8182
" />
<path d="M26597 8812
L26597 8182
" />
<path d="M28197 7212
L26622 7212
" />
<path d="M28197 6582
L26622 6582
" />
<path d="M28197 7212
L28197 6582
" />
<path d="M26622 7212
L26622 6582
" />
<path d="M9872 9007
L11447 9007
" />
<path d="M9872 9637
L11447 9637
" />
<path d="M9872 9007
L9872 9637
" />
<path d="M11447 9007
L11447 9637
" />
<path d="M7322 9007
L8897 9007
" />
<path d="M7322 9637
L8897 9637
" />
<path d="M7322 9007
L7322 9637
" />
<path d="M8897 9007
L8897 9637
" />
<path d="M16264 10630
L11874 10630
" />
<path d="M16264 12008
L11874 12008
" />
<path d="M16264 10630
L16264 12008
" />
<path d="M11874 10630
L11874 12008
" />
<path d="M16264 8630
L11874 8630
" />
<path d="M16264 10008
L11874 10008
" />
<path d="M16264 8630
L16264 10008
" />
<path d="M11874 8630
L11874 10008
" />
<path d="M16264 6630
L11874 6630
" />
<path d="M16264 8008
L11874 8008
" />
<path d="M16264 6630
L16264 8008
" />
<path d="M11874 6630
L11874 8008
" />
<circle cx="5977.39" cy="4803.15" r="1023.62" /> 
<circle cx="28812" cy="4803.15" r="1023.62" /> 
<circle cx="28812" cy="13858.3" r="1023.62" /> 
<circle cx="5977.39" cy="13858.3" r="1023.62" /> 
<path d="M5245 8633
L5245 12019
" />
<path d="M6623 8633
L6623 12019
" />
<path d="M5245 8633
L6623 8633
" />
<path d="M5245 12019
L6623 12019
" />
<path d="M19546 11496
L27578 11496
" />
<path d="M19546 15512
L19546 11496
" />
<path d="M27578 15512
L19546 15512
" />
<path d="M27578 11496
L27578 15512
" />
</g>
<g style="fill:#000000; fill-opacity:0.0; 
stroke:#000000; stroke-width:19.685; stroke-opacity:1; 
stroke-linecap:round; stroke-linejoin:round;">
</g>
<g style="fill:#C2C200; fill-opacity:0.0; 
stroke:#C2C200; stroke-width:19.685; stroke-opacity:1; 
stroke-linecap:round; stroke-linejoin:round;">
</g>
<g style="fill:#C2C200; fill-opacity:0.0; 
stroke:#C2C200; stroke-width:98.4252; stroke-opacity:1; 
stroke-linecap:round; stroke-linejoin:round;">
<path d="M10026 11785
L10288 11785
" />
<path d="M9876 11879
L10157 11973
L10157 11729
" />
<path d="M10270 11560
L10288 11560
L10326 11579
L10345 11598
" />
<path d="M9895 11429
L9895 11167
L10288 11336
" />
<path d="M10288 11017
L9895 11017
" />
<path d="M10288 10792
L10063 10961
" />
<path d="M9895 10792
L10120 11017
" />
</g>
<g style="fill:#C2C200; fill-opacity:0.0; 
stroke:#C2C200; stroke-width:78.7402; stroke-opacity:1; 
stroke-linecap:round; stroke-linejoin:round;">
<path d="M28990 7416
L28990 7596
" />
<path d="M28990 7506
L28596 7506
L28652 7536
L28690 7566
L28708 7596
" />
<path d="M28596 7221
L28596 7191
L28615 7161
L28633 7146
L28671 7131
L28746 7116
L28840 7116
L28915 7131
L28952 7146
L28971 7161
L28990 7191
L28990 7221
L28971 7251
L28952 7266
L28915 7281
L28840 7296
L28746 7296
L28671 7281
L28633 7266
L28615 7251
L28596 7221
" />
<path d="M28596 6921
L28596 6891
L28615 6861
L28633 6846
L28671 6831
L28746 6816
L28840 6816
L28915 6831
L28952 6846
L28971 6861
L28990 6891
L28990 6921
L28971 6951
L28952 6966
L28915 6981
L28840 6996
L28746 6996
L28671 6981
L28633 6966
L28615 6951
L28596 6921
" />
<path d="M28727 6681
L28990 6681
" />
<path d="M28765 6681
L28746 6666
L28727 6636
L28727 6591
L28746 6561
L28783 6546
L28990 6546
" />
<path d="M28783 6291
L28783 6396
" />
<path d="M28990 6396
L28596 6396
L28596 6246
" />
</g>
<g style="fill:#C2C200; fill-opacity:0.0; 
stroke:#C2C200; stroke-width:98.4252; stroke-opacity:1; 
stroke-linecap:round; stroke-linejoin:round;">
<path d="M28990 8982
L28990 9206
" />
<path d="M28990 9094
L28596 9094
L28652 9131
L28690 9169
L28708 9206
" />
<path d="M28990 8813
L28596 8813
" />
<path d="M28990 8588
L28765 8757
" />
<path d="M28596 8588
L28821 8813
" />
<path d="M9986 9778
L10249 9778
" />
<path d="M9836 9871
L10118 9965
L10118 9721
" />
<path d="M10230 9553
L10249 9553
L10286 9571
L10305 9590
" />
<path d="M9855 9421
L9855 9159
L10249 9328
" />
<path d="M10249 9009
L9855 9009
" />
<path d="M10249 8784
L10024 8953
" />
<path d="M9855 8784
L10080 9009
" />
<path d="M26007 8419
L26007 8682
" />
<path d="M25913 8269
L25819 8550
L26063 8550
" />
<path d="M26232 8663
L26232 8682
L26213 8719
L26194 8738
" />
<path d="M26363 8288
L26626 8288
L26457 8682
" />
<path d="M26776 8682
L26776 8288
" />
<path d="M27001 8682
L26832 8457
" />
<path d="M27001 8288
L26776 8513
" />
<path d="M26007 6844
L26007 7107
" />
<path d="M25913 6694
L25819 6976
L26063 6976
" />
<path d="M26232 7088
L26232 7107
L26213 7144
L26194 7163
" />
<path d="M26363 6713
L26626 6713
L26457 7107
" />
<path d="M26776 7107
L26776 6713
" />
<path d="M27001 7107
L26832 6882
" />
<path d="M27001 6713
L26776 6938
" />
</g>
<g style="fill:#000000; fill-opacity:0.0; 
stroke:#000000; stroke-width:98.4252; stroke-opacity:1; 
stroke-linecap:round; stroke-linejoin:round;">
</g>
<g style="fill:#000084; fill-opacity:0.0; 
stroke:#000084; stroke-width:98.4252; stroke-opacity:1; 
stroke-linecap:round; stroke-linejoin:round;">
</g>
<g style="fill:#000084; fill-opacity:0.0; 
stroke:#000084; stroke-width:59.0551; stroke-opacity:1; 
stroke-linecap:round; stroke-linejoin:round;">
<circle cx="5977.39" cy="4803.15" r="925.197" /> 
<circle cx="28812" cy="4803.15" r="925.197" /> 
<circle cx="28812" cy="13858.3" r="925.197" /> 
<circle cx="5977.39" cy="13858.3" r="925.197" /> 
</g>
<g style="fill:#000000; fill-opacity:0.0; 
stroke:#000000; stroke-width:59.0551; stroke-opacity:1; 
stroke-linecap:round; stroke-linejoin:round;">
</g>
<g style="fill:#C2C200; fill-opacity:0.0; 
stroke:#C2C200; stroke-width:59.0551; stroke-opacity:1; 
stroke-linecap:round; stroke-linejoin:round;">
</g>
<g style="fill:#C2C200; fill-opacity:0.0; 
stroke:#C2C200; stroke-width:39.3701; stroke-opacity:1; 
stroke-linecap:round; stroke-linejoin:round;">
<path d="M4599 14056
L4599 4607
" />
<path d="M29009 15237
L5780 15237
" />
<path d="M30190 4607
L30190 14056
" />
<path d="M5780 3426
L29009 3426
" />
<path d="M5780.97 3426.61 A1181.1 1181.1 0.0 0 0 4599.87 4607.72 " />
<circle cx="5977.82" cy="4410.87" r="0" /> 
<path d="M30190.4 4607.72 A1181.1 1181.1 0.0 0 0 29009.3 3426.61 " />
<circle cx="29206.2" cy="4410.87" r="0" /> 
<path d="M29009.3 15237.6 A1181.1 1181.1 0.0 0 0 30190.4 14056.5 " />
<circle cx="29206.2" cy="13859.7" r="0" /> 
<path d="M4599.87 14056.5 A1181.1 1181.1 0.0 0 0 5780.97 15237.6 " />
<circle cx="5977.82" cy="13859.7" r="0" /> 
</g> 
</svg>
